<svg id="Layer_1" data-name="Layer 1" xmlns="http://www.w3.org/2000/svg" viewBox="0 0 30 30"><defs><style>.cls-1{fill:#aaa;}.cls-2{fill:#fff;}</style></defs><title>icons</title><path class="cls-1" d="M3.36,24.28V9.1c.08-.06.14-.16.23-.19.72-.23,1.44-.45,2.17-.66A.28.28,0,0,0,6,7.93C6,6.34,6,4.74,6,3.15V2.87l.13,0,4,1.3,4.12,1.35a.73.73,0,0,0,.36,0c.41-.12.81-.26,1.22-.39l3.49-1.09,3.53-1.11,1.26-.42h.15c.21.07.26.22.26.43,0,.76,0,1.53,0,2.29V8.45c0,.12,0,.22.15.26l2.08.59V24.38l-6.14-1.8-5.1-1.5a1.16,1.16,0,0,0-.63-.08c-2,.6-4,1.23-6,1.85l-5,1.54A.43.43,0,0,1,3.36,24.28Zm.6-.53h.09l2.17-.67,4.65-1.42,3.47-1.06c.17-.05.19-.14.19-.29V6.37c0-.07,0-.14,0-.24l-.7.22L8.27,8.05c-1.34.41-2.67.84-4,1.23a.35.35,0,0,0-.3.41q0,6.89,0,13.76Zm20.46-4c-.06-.15-.1-.24-.13-.34-.17-.55-.33-1.09-.5-1.63s-.39-1.3-.58-2l-.48-1.58-.6-2c-.12-.4-.22-.81-.34-1.21s-.18-.5-.51-.56a8.21,8.21,0,0,1-1-.27c-.15,0-.23,0-.29.13-.35.81-.7,1.6-1.06,2.4s-.71,1.6-1.05,2.4-.59,1.39-.89,2.08c-.06.15-.14.28-.22.44l1.58.44c.2-.45.39-.88.57-1.32.06-.14.13-.22.31-.17l2.88.83a.36.36,0,0,1,.2.2c.14.47.25.94.39,1.41,0,.12.11.28.21.31C23.41,19.52,23.9,19.64,24.42,19.79ZM23.91,3.18,15.17,5.92l8.74,2.57Z"/><path class="cls-2" d="M26.74,9.3l-2.08-.59c-.16,0-.15-.14-.15-.26V5.24c0-.76,0-1.53,0-2.29,0-.21-.05-.36-.26-.43h2.48Z"/><path class="cls-2" d="M24.42,19.79c-.52-.15-1-.27-1.48-.43-.1,0-.17-.19-.21-.31-.14-.47-.25-.94-.39-1.41a.36.36,0,0,0-.2-.2l-2.88-.83c-.18-.05-.25,0-.31.17-.18.44-.37.87-.57,1.32l-1.58-.44c.08-.16.16-.29.22-.44.3-.69.59-1.39.89-2.08s.7-1.6,1.05-2.4.71-1.59,1.06-2.4c.06-.15.14-.17.29-.13a8.21,8.21,0,0,0,1,.27c.33.06.43.29.51.56s.22.81.34,1.21l.6,2,.48,1.58c.19.65.39,1.3.58,2s.33,1.08.5,1.63C24.32,19.55,24.36,19.64,24.42,19.79Zm-2.63-4a1.77,1.77,0,0,1-.12-.28c-.27-.89-.53-1.79-.8-2.68a1.22,1.22,0,0,0-.07-.17l-1.12,2.54Z"/><path class="cls-1" d="M20.57,25.39l-.65-1,2.41.17-.83,2.21-.62-.88-.89.43a11.68,11.68,0,0,1-4.16,1.18,11.93,11.93,0,0,1-5.17-.61c-.78-.28-1.53-.64-2.29-1a.6.6,0,0,1-.11-.06c-.16-.1-.23-.23-.13-.4s.26-.15.4-.08.33.17.49.26a12.17,12.17,0,0,0,4.14,1.29,10.63,10.63,0,0,0,4.66-.36c.81-.26,1.59-.62,2.38-.95A2.7,2.7,0,0,0,20.57,25.39Z"/><path class="cls-1" d="M13.31,17.62a10,10,0,0,1-3.47-1.86c-.18.23-.33.43-.5.63C8.66,17.2,8,18,7.28,18.81c-.24.28-.52.54-.79.8a.94.94,0,0,1-.8.27c.52-.6,1.06-1.18,1.57-1.79s1.07-1.33,1.56-2,.72-1.14,1.07-1.71c.25-.41.48-.84.71-1.26a1.9,1.9,0,0,0,.09-.22l-.74.18-2,.56c-.12,0-.2.06-.2.21a.28.28,0,0,1-.15.2,1.24,1.24,0,0,1-1.25,0A2,2,0,0,1,6,13.57a27.07,27.07,0,0,0,6-1.92l.08,0a2,2,0,0,1-.11.61c-.41.77-.83,1.53-1.26,2.27-.2.34-.44.65-.68,1l1.61.66c.4.16.8.3,1.2.45A.84.84,0,0,1,13.31,17.62Z"/><path class="cls-1" d="M7.47,10.92a1.75,1.75,0,0,0,1.11,0l1.1-.28c.18,0,.37-.1.49.11a.56.56,0,0,1-.14.62,2.37,2.37,0,0,1-1.41.54A1.06,1.06,0,0,1,7.47,10.92Z"/><path class="cls-1" d="M21.79,15.77l-2.11-.59,1.12-2.54a1.22,1.22,0,0,1,.07.17c.27.89.53,1.79.8,2.68A1.77,1.77,0,0,0,21.79,15.77Z"/></svg>