<svg id="Layer_1" data-name="Layer 1" xmlns="http://www.w3.org/2000/svg" viewBox="0 0 30 30"><defs><style>.cls-1{fill:#aaa;}</style></defs><title>icons</title><path class="cls-1" d="M8.54,27.74a1.18,1.18,0,0,1-.79-1.67L9.7,18.88l0-.18h-1c.38-.4.68-.75,1-1.08.07-.07.24-.06.37-.06H24.66V5.13h-19v.36q0,5.57,0,11.15a.63.63,0,0,1-.25.55c-.29.23-.56.49-.91.8v-.4q0-6.16,0-12.32a.54.54,0,0,0-.21-.48A1.06,1.06,0,0,1,4,3.59,1.12,1.12,0,0,1,5,2.86H11c4.62,0,9.24,0,13.86,0,.79,0,1.34.2,1.61,1v.36a3.37,3.37,0,0,1-.4.63.64.64,0,0,0-.21.51V17.93c0,.57-.19.76-.77.76H20.55c0,.18.08.32.12.46q.93,3.47,1.88,6.91a1.2,1.2,0,0,1-.78,1.68h-.54a1.36,1.36,0,0,1-.89-1c-.65-2.41-1.31-4.81-2-7.22a.32.32,0,0,0-.38-.29c-1.9,0-3.8,0-5.69,0a.35.35,0,0,0-.41.31c-.63,2.35-1.28,4.7-1.9,7.05a1.46,1.46,0,0,1-.93,1.13Z"/><path class="cls-1" d="M17.46,11.32c0-1.36,0-2.71,0-4.07a1.13,1.13,0,0,1,.88-1.12,1.14,1.14,0,0,1,1.29.58,1.35,1.35,0,0,1,.13.56q0,4.07,0,8.12a1.16,1.16,0,0,1-2.27.33,1.6,1.6,0,0,1,0-.44Z"/><path class="cls-1" d="M23.52,12.48c0,1,0,2,0,3a1.09,1.09,0,0,1-.9,1.07A1.12,1.12,0,0,1,21.36,16a1.22,1.22,0,0,1-.14-.56c0-2,0-3.93,0-5.89a1.12,1.12,0,0,1,1.13-1.15,1.13,1.13,0,0,1,1.17,1.15c0,1,0,2,0,3Z"/><path class="cls-1" d="M16,13.33c0,.67,0,1.35,0,2a1.16,1.16,0,1,1-2.31,0V11.28a1.14,1.14,0,0,1,1.17-1.21A1.12,1.12,0,0,1,16,11.27C16,12,16,12.64,16,13.33Z"/><path class="cls-1" d="M4.5,21.36a.84.84,0,0,1-.85-.46.64.64,0,0,1,.16-.78c.22-.22.46-.42.7-.63l6.91-6.2.11-.1c.14-.12.29-.19.44,0s.1.3,0,.43l-1.15,1.24Q7.9,17.93,5,21A2.44,2.44,0,0,1,4.5,21.36Z"/></svg>