<svg id="Layer_1" data-name="Layer 1" xmlns="http://www.w3.org/2000/svg" viewBox="0 0 30 30"><defs><style>.cls-1{fill:#aaa;}.cls-2{fill:#fff;}</style></defs><title>icons</title><path class="cls-1" d="M11.33,5.54a.61.61,0,0,1,.33.63c0,.52,0,1,0,1.56,0,.13,0,.25.18.28A5.39,5.39,0,0,1,14,9a.28.28,0,0,0,.43,0c.36-.39.73-.77,1.1-1.14s.48-.29.76,0S17,8.59,17.38,9a.41.41,0,0,1,0,.65c-.38.4-.77.8-1.16,1.19a.48.48,0,0,0-.11.65A12.93,12.93,0,0,1,16.65,13c.06.18.12.26.33.26.53,0,1.06,0,1.59,0,.35,0,.52.16.53.52,0,.56,0,1.13,0,1.69,0,.38-.17.53-.55.53H16.94c-.17,0-.24,0-.3.23-.19.55-.4,1.09-.62,1.62-.06.15-.08.24.05.36.36.35.72.71,1.07,1.08a1,1,0,0,1,.29.35.7.7,0,0,1,0,.5c-.35.44-.74.85-1.13,1.26s-.45.27-.72,0-.8-.79-1.19-1.2a.25.25,0,0,0-.38,0,5.75,5.75,0,0,1-2.13,1c-.15,0-.2.11-.2.27,0,.6,0,1.2,0,1.8,0,.39-.16.55-.54.55H9.63c-.4,0-.55-.16-.55-.57,0-.59,0-1.18,0-1.77,0-.19-.05-.27-.25-.31a4.44,4.44,0,0,1-1.56-.68.28.28,0,0,0-.42.06c-.44.47-.89.93-1.34,1.4a.31.31,0,0,1-.48,0q-.65-.66-1.26-1.35a.41.41,0,0,1,0-.67c.4-.42.81-.83,1.21-1.26a.31.31,0,0,0,.06-.29,8.42,8.42,0,0,1-.93-2.26C4.13,16,4,16,3.9,16c-.5,0-1,0-1.5,0-.33,0-.57-.05-.69-.39v-2c.12-.35.39-.4.72-.39s1,0,1.45,0c.09,0,.24-.08.25-.16a6.63,6.63,0,0,1,.81-2c.09-.16,0-.27-.09-.4-.39-.38-.77-.77-1.15-1.16a.4.4,0,0,1,0-.64c.35-.4.71-.8,1.08-1.19s.48-.3.76,0,.78.77,1.16,1.16a.24.24,0,0,0,.37,0A4.91,4.91,0,0,1,8.87,8c.19,0,.21-.13.21-.28,0-.52,0-1,0-1.56a.71.71,0,0,1,.29-.65Zm-4.82,8.8a4,4,0,0,0,2.33,4,3.39,3.39,0,0,0,3.29-.16,3.81,3.81,0,0,0,2-3,3.94,3.94,0,0,0-2.29-4.22,3.4,3.4,0,0,0-3.31.16A3.82,3.82,0,0,0,6.51,14.34Z"/><path class="cls-1" d="M22.32,24.56c-.25-.11-.48-.23-.73-.33s-.25-.18-.18-.38.19-.61.26-.92a.36.36,0,0,0-.11-.28c-.19-.19-.42-.34-.62-.53a.25.25,0,0,0-.35-.06c-.22.13-.46.23-.69.34s-.36.12-.49-.15-.24-.51-.36-.77a.24.24,0,0,1,.12-.36c.23-.12.45-.24.68-.34a.33.33,0,0,0,.19-.4c-.05-.37-.09-.74-.11-1.11a.25.25,0,0,0-.2-.27L19,18.76a.28.28,0,0,1-.23-.39c.09-.3.18-.59.28-.88a.23.23,0,0,1,.34-.17l.78.26a.28.28,0,0,0,.36-.13c.2-.28.44-.54.65-.83a.34.34,0,0,0,0-.28c-.11-.26-.24-.51-.37-.76a.25.25,0,0,1,.11-.4l.75-.4a.25.25,0,0,1,.4.12c.13.25.26.51.41.74a.35.35,0,0,0,.27.13c.31,0,.61-.09.92-.08s.29-.06.34-.25.18-.52.26-.78a.22.22,0,0,1,.33-.17,9.37,9.37,0,0,1,.87.36.38.38,0,0,1,.12.33c-.05.27-.17.54-.23.81a.39.39,0,0,0,.09.29c.3.31.62.61.94.89a.26.26,0,0,0,.24,0c.26-.13.5-.28.76-.42a.27.27,0,0,1,.42.14c.12.27.25.55.38.82s0,.27-.13.36-.52.31-.8.45a.26.26,0,0,0-.16.32,6.33,6.33,0,0,1,0,.87.23.23,0,0,0,.2.27c.25.07.5.16.75.24s.28.17.23.37a7.8,7.8,0,0,1-.31.93.36.36,0,0,1-.32.12,5,5,0,0,1-.78-.24.26.26,0,0,0-.37.12c-.15.24-.35.45-.52.69a.34.34,0,0,0,0,.26c.14.29.28.59.44.87a.25.25,0,0,1-.11.37l-.79.43c-.17.09-.29,0-.38-.14s-.28-.55-.44-.82a.26.26,0,0,0-.2-.11c-.38.05-.75.15-1.13.17-.22,0-.32.07-.38.28a9.19,9.19,0,0,1-.36,1Zm3.34-5a2.16,2.16,0,0,0-2.16-2.26,2.09,2.09,0,0,0-2.16,2.21,2.16,2.16,0,1,0,4.32.05Z"/><path class="cls-2" d="M9.36,5.54a.71.71,0,0,0-.29.65c0,.52,0,1,0,1.56,0,.15,0,.24-.21.28a4.91,4.91,0,0,0-1.82.82.24.24,0,0,1-.37,0C6.3,8.42,5.91,8,5.52,7.65s-.48-.27-.76,0S4,8.46,3.68,8.86a.4.4,0,0,0,0,.64c.38.39.76.78,1.15,1.16.14.13.18.24.09.4a6.63,6.63,0,0,0-.81,2c0,.08-.16.16-.25.16-.48,0-1,0-1.45,0s-.6,0-.72.39V5.54Z"/><path class="cls-1" d="M24.24,8.5c.1.25.2.5.29.76,0,0,0,.11-.08.15a.27.27,0,0,1-.12.06c-.61.26-.62.26-.61.91a.37.37,0,0,0,.11.2l.09.05c.57.27.61.44.24,1a.48.48,0,0,1-.23.09s-.07,0-.1,0c-.55-.24-.55-.24-1,.22a.31.31,0,0,0-.06.21,2.1,2.1,0,0,0,.06.24c0,.17.16.43.1.49a1.73,1.73,0,0,1-.63.29c-.05,0-.19-.1-.2-.17-.09-.45-.35-.52-.78-.53a.58.58,0,0,0-.7.46c-.12.32-.15.31-.46.17l-.1,0c-.4-.19-.4-.18-.22-.59a1.15,1.15,0,0,0,.11-.31.42.42,0,0,0-.07-.27c-.25-.36-.55-.57-1-.27a.13.13,0,0,1-.1,0c-.33-.11-.26-.44-.37-.67s0-.24.14-.27c.46-.08.58-.35.54-.8s0-.43-.4-.62-.34-.15-.19-.48c.25-.55.25-.55.79-.3a.29.29,0,0,0,.36-.06c.36-.3.6-.6.28-1.08-.08-.13,0-.24.14-.29l.05,0c.61-.25.62-.26.82.38.05.17.13.23.29.2h.05A.64.64,0,0,0,22.22,7c0-.17.16-.22.33-.13.6.29.68.18.34.87a.27.27,0,0,0,.08.37,2.63,2.63,0,0,1,.39.49c.09.14.17.19.33.12l.48-.19ZM22.81,10A1.39,1.39,0,1,0,20,10c.06.91.54,1.48,1.37,1.49A1.43,1.43,0,0,0,22.81,10Z"/></svg>