<svg id="Layer_1" data-name="Layer 1" xmlns="http://www.w3.org/2000/svg" viewBox="0 0 30 30"><defs><style>.cls-1{fill:#fff;}.cls-2{fill:#aaa;}</style></defs><title>icons</title><path class="cls-1" d="M13.86,14.53A5.18,5.18,0,0,1,9.34,10C9,5.55,13.66,3.33,17.09,4.48a5.18,5.18,0,0,1,3.41,7.26c-.28.64-.55,1.15-1.46.75A11.26,11.26,0,0,0,16.81,12a5.78,5.78,0,0,1,.63-.71,2.14,2.14,0,0,0,.63-2.77,3,3,0,0,0-2.53-1.78c-2.11-.21-4,1.49-3.39,3.45a2,2,0,0,0,.62,1,2.36,2.36,0,0,1,1.1,2.46A4.7,4.7,0,0,0,13.86,14.53Z"/><path class="cls-1" d="M16.54,11.13c-.25-1.12.48-2.76-1.4-2.76s-1,1.69-1.36,2.66a2,2,0,0,1-.43-2.77A2.49,2.49,0,0,1,16.68,8C17.62,8.78,17.61,10.05,16.54,11.13Z"/><path class="cls-1" d="M17.42,22.81c-.21-.6,0-.83.57-.81q1.16,0,2.31,0c.59,0,.77.21.57.81Z"/><path class="cls-1" d="M16.67,22.82H14.74c0-.27.07-.71.15-.72a6,6,0,0,1,1.52,0C16.51,22.09,16.56,22.49,16.67,22.82Z"/><path class="cls-2" d="M15.22,28.52a2.77,2.77,0,0,1-.2-.72c0-1.7,0-3.4,0-5.09,0-.28.25-.55.38-.83l.23.06a8.42,8.42,0,0,1-.56-.9A1.93,1.93,0,0,0,13,19.79c-.91,0-1.21-.49-.63-1.21a3.44,3.44,0,0,1,1.44-.87,3.06,3.06,0,0,1,1,0c.32-.65.06-.88-.52-1.08a5.39,5.39,0,1,1,6.91-6.56,5.54,5.54,0,0,1-.61,4.34,1.51,1.51,0,0,1,.84,1.66c0,.8.06,1.6,0,2.39A22.1,22.1,0,0,1,20.94,21c-.07.31-.15.62-.26,1,.75,0,.81.38.81.9,0,1.59,0,3.19,0,4.78a4,4,0,0,1-.24.86h-.31c-.23-.15-.46-.4-.69-.41-1.33,0-2.67,0-4,0-.24,0-.47.26-.7.41ZM19.78,14.3A4.52,4.52,0,0,0,20,8.88a4.74,4.74,0,0,0-5.63-1.79,4.81,4.81,0,0,0-3,5A4.51,4.51,0,0,0,15,16c-.1-1,.36-2-.75-2.82A2.27,2.27,0,0,1,14,10a2.51,2.51,0,0,1,3.16-.77,2.45,2.45,0,0,1,1.23,3,9.57,9.57,0,0,1-.87,1.5ZM15,12.84c0-.48,0-.88,0-1.28a1,1,0,0,1,1-1.11c.62,0,1,.4,1.1,1.11,0,.4,0,.8,0,1.29a1.71,1.71,0,0,0,.26-2.57,1.8,1.8,0,0,0-2.66,0A1.7,1.7,0,0,0,15,12.84Z"/><path class="cls-1" d="M15.53,28.52c.23-.15.46-.4.7-.41,1.33,0,2.67,0,4,0,.23,0,.46.26.69.41Z"/></svg>