<svg id="Layer_1" data-name="Layer 1" xmlns="http://www.w3.org/2000/svg" viewBox="0 0 30 30"><defs><style>.cls-1{fill:#b4b4b4;}</style></defs><title>6</title><path class="cls-1" d="M15.14,17.39V13.52a4.32,4.32,0,0,1-3.33-2l-3.4,1.87a3.31,3.31,0,0,1,.11,2.91A3.22,3.22,0,0,1,6.91,18,3.33,3.33,0,1,1,8.1,13l3.44-1.89a4.37,4.37,0,0,1-.19-3.14,4.19,4.19,0,0,1,1.59-2.16,4.28,4.28,0,0,1,6.37,5.29l3.44,1.89a3.35,3.35,0,0,1,2.76-1.28,3.19,3.19,0,0,1,2.18.93,3.33,3.33,0,0,1-3.85,5.35,3.34,3.34,0,0,1-1.39-4.52L19,11.55a4.33,4.33,0,0,1-3.32,2v3.86a3.42,3.42,0,1,1-.58,0Zm1.53-7.81a2,2,0,0,1,1.24.63,2,2,0,0,1,.54,1.3,3.78,3.78,0,0,0-6-4.62,3.71,3.71,0,0,0-.06,4.6l0-.17A2,2,0,0,1,14,9.62c.2,0,.2,0,.29.12l.06.09a6.28,6.28,0,0,0,1.1,1A4.55,4.55,0,0,0,16.67,9.58Zm9.71,5.67a1.57,1.57,0,0,1,1.36,1.49A2.91,2.91,0,0,0,27.52,13a3,3,0,0,0-4.37.12A2.91,2.91,0,0,0,23,16.74a2,2,0,0,1,0-.26,1.52,1.52,0,0,1,1.27-1.21.09.09,0,0,1,.12.06.39.39,0,0,0,.12.19c.24.23.49.45.75.68a.11.11,0,0,0,.11,0c.22-.18.43-.37.64-.56A3.39,3.39,0,0,0,26.38,15.25Zm-8.63,7.23a2.94,2.94,0,1,0-4.82-3.37,2.85,2.85,0,0,0-.39,2.29,2.17,2.17,0,0,0,.52,1s0-.05,0-.08A1.52,1.52,0,0,1,14.23,21a.35.35,0,0,1,.2,0s.06.09.09.14v0a4.82,4.82,0,0,0,.88.8l.5-.42a1.66,1.66,0,0,0,.43-.52.08.08,0,0,1,.08,0,1.52,1.52,0,0,1,1.12.76A1.77,1.77,0,0,1,17.75,22.48ZM4.5,15.27a2.1,2.1,0,0,0,.15.22l.76.7a.13.13,0,0,0,.12,0l.33-.26a2.09,2.09,0,0,0,.55-.63.08.08,0,0,1,.08,0,1.56,1.56,0,0,1,1.28,1.16c0,.1,0,.2.05.31a2.91,2.91,0,0,0,.32-3,3,3,0,0,0-5.59.83,2.79,2.79,0,0,0,.57,2.16A1.53,1.53,0,0,1,4.5,15.27Z"/><path class="cls-1" d="M17.08,7.58a2.88,2.88,0,0,1-.85,1.9,1,1,0,0,1-1.36.18,2.19,2.19,0,0,1-.49-.47,2.58,2.58,0,0,1-.59-1.85,1.58,1.58,0,0,1,.85-1.26,1.65,1.65,0,0,1,2,.33A1.58,1.58,0,0,1,17.08,7.58Z"/><path class="cls-1" d="M26.67,13.82a2,2,0,0,1-.85,1.49.74.74,0,0,1-1-.06,2.05,2.05,0,0,1-.76-1.57,1.28,1.28,0,0,1,1.27-1.3A1.32,1.32,0,0,1,26.67,13.82Z"/><path class="cls-1" d="M16.7,19.39a2.28,2.28,0,0,1-.65,1.48.81.81,0,0,1-1.25,0,2,2,0,0,1-.67-1.63,1.24,1.24,0,0,1,1-1.14,1.3,1.3,0,0,1,1.56,1A2.06,2.06,0,0,1,16.7,19.39Z"/><path class="cls-1" d="M4.18,13.67A1.26,1.26,0,0,1,5,12.47a1.28,1.28,0,0,1,1.44.35A1.33,1.33,0,0,1,6.72,14a2.52,2.52,0,0,1-.55,1.08,1.08,1.08,0,0,1-.55.33.78.78,0,0,1-.72-.21A2.23,2.23,0,0,1,4.21,14,2.58,2.58,0,0,1,4.18,13.67Z"/></svg>